<svg id="레이어_1" data-name="레이어 1" xmlns="http://www.w3.org/2000/svg" viewBox="0 0 687.2 133.1">
    <defs>
        <style>.cls-1{fill:#367dc1;}.cls-2{fill:#6bbdc4;}.cls-3{fill:#377dc1;}</style>
    </defs>
    <title>DEVLINK CI</title>
    <path class="cls-1" d="M348.4,298.4h36.8c15.4,0,26,1.7,31.7,5.1s8.1,9.6,8.1,18.5v61.6c0,10.1-2.8,17.2-8.5,21.3s-16.4,6.2-31.6,6.2H348.4Zm20.4,97.9c9.7,0,16.4-.1,19.9-.4,5-.4,8.5-1.2,10.7-2.4a9.2,9.2,0,0,0,4.2-6.1c.6-2.3.9-6.2.9-11.8V328.8q0-6.7-.9-9.6a8.5,8.5,0,0,0-4.4-4.9c-2.2-.9-5.8-1.5-10.7-1.8s-10.1-.3-19.7-.3Z" transform="translate(-182.1 -288.2)"/>
    <path class="cls-1" d="M440.5,298.4h56.1v14.7H461v32.7h33.4V360H461v36.2h36.8v15H440.5Z" transform="translate(-182.1 -288.2)"/>
    <path class="cls-1" d="M592.6,298.4,566.4,411.2H531.8L506.3,298.4h20.8l22,96.5,1.6-7.3,6.9-29.6c2.6-11.2,5-21.5,7-31l6.4-28.6Z" transform="translate(-182.1 -288.2)"/>
    <path class="cls-1" d="M623.5,298.4v97.7h32.1v15.1H602.5V298.4Z" transform="translate(-182.1 -288.2)"/>
    <path class="cls-1" d="M687.9,298.4V411.2H667V298.4Z" transform="translate(-182.1 -288.2)"/>
    <path class="cls-1" d="M777.2,298.4V411.2H747.9l-24.5-85.7v85.7H702.9V298.4h27.7l25.8,85.9V298.4Z" transform="translate(-182.1 -288.2)"/>
    <path class="cls-1" d="M863.4,298.4l-34.2,48.5,40.1,64.3H845.1l-28.3-48.5-6.7,12.5v36H789.9V298.4h20.2v43.4l28.6-43.4Z" transform="translate(-182.1 -288.2)"/>
    <circle class="cls-2" cx="66.6" cy="66.6" r="25.7"/>
    <polygon class="cls-3" points="113.2 0 112.9 0 112.9 20 113.2 20 133.1 20 133.1 0 113.2 0"/>
    <path class="cls-3" d="M295.3,354.8h0a46.6,46.6,0,0,1-46.6,46.6H211.1v20h37.6a66.6,66.6,0,0,0,66.5-66.6h0V317.1H295.3Z" transform="translate(-182.1 -288.2)"/>
    <polygon class="cls-3" points="0 112.9 0 113.2 0 133.1 20 133.1 20 113.2 20 112.9 0 112.9"/>
    <path class="cls-3" d="M248.7,288.2a66.6,66.6,0,0,0-66.6,66.6h0v37.5h20V354.8h0a46.6,46.6,0,0,1,46.6-46.6h37.5v-20Z" transform="translate(-182.1 -288.2)"/>
</svg>