<svg xmlns="http://www.w3.org/2000/svg" viewBox="0 0 133.1 133.1">
    <defs>
        <style>.cls-1{fill:#367dc1;}.cls-2{fill:#6bbdc4;}.cls-3{fill:#377dc1;}</style>
    </defs>
    
    <!-- 중앙 원형 -->
    <circle class="cls-2" cx="66.6" cy="66.6" r="25.7"/>
    
    <!-- 우상단 사각형 -->
    <polygon class="cls-3" points="113.2 0 112.9 0 112.9 20 113.2 20 133.1 20 133.1 0 113.2 0"/>
    
    <!-- 우하단으로 이어지는 경로 -->
    <path class="cls-3" d="M113.2,66.6h0a46.6,46.6,0,0,1-46.6,46.6H29v20h37.6a66.6,66.6,0,0,0,66.5-66.6h0V29H113.2Z"/>
    
    <!-- 좌하단 사각형 -->
    <polygon class="cls-3" points="0 112.9 0 113.2 0 133.1 20 133.1 20 113.2 20 112.9 0 112.9"/>
    
    <!-- 좌상단으로 이어지는 경로 -->
    <path class="cls-3" d="M66.6,0a66.6,66.6,0,0,0-66.6,66.6h0v37.5h20V66.6h0A46.6,46.6,0,0,1,66.6,20h37.5v-20Z"/>
</svg>